<svg xmlns="http://www.w3.org/2000/svg" width="13" height="18" viewBox="0 0 13 18">
    <path fill="#31CB9E" d="M5 10.333l6.82 3.704c.222.123.243.42.038.57L7.25 17.932c-.21.15-.52.043-.57-.203L5 10.333zM4.778.408c.255-.2.615.033.547.356L3.599 9.002l1.726 8.234c.068.323-.292.557-.547.356L.36 14.133c-.228-.176-.36-.455-.36-.746V4.613c0-.291.132-.57.36-.746zm7.353 4.639c.24-.132.536.031.536.3v6.974c0 .264-.297.432-.536.3L5.333 8.836zM6.681.273c.055-.245.36-.356.574-.202l4.603 3.322c.206.15.185.448-.042.571L5 7.667z"/>
</svg>
