<svg xmlns="http://www.w3.org/2000/svg" width="160" height="44" viewBox="0 0 160 44">
    <defs>
        <linearGradient id="cqmwy4bn1a" x1="19.761%" x2="73.131%" y1="7.151%" y2="123.219%">
            <stop offset="0%" stop-color="#FF5FEB"/>
            <stop offset="100%" stop-color="#AF5FFF"/>
        </linearGradient>
    </defs>
    <g fill="none">
        <path fill="url(#cqmwy4bn1a)" d="M66.018 33.045l2.977 2.495-1.261 1.472c-7.03 8.204-17.773 8.286-31.682.668l-.422-.233-1.7-.947 1.912-3.364 1.701.947c12.539 6.976 21.37 7.046 27.042.63l.171-.196 1.262-1.472zM40.645 8.13c1.656.026 2.996.3 4.02.819 1.01.546 1.79 1.165 2.342 1.857.835.786 1.428 1.752 1.778 2.897.336 1.172.505 2.85.505 5.034 0 2.184-.169 3.849-.505 4.994-.35 1.146-.943 2.138-1.778 2.977-.27.306-.599.606-.99.899-.35.333-.8.62-1.353.859-1.023.572-2.363.872-4.02.899-1.602-.027-2.914-.327-3.938-.9-1.037-.519-1.845-1.105-2.424-1.757-.78-.84-1.36-1.831-1.737-2.977-.363-1.145-.545-2.81-.545-4.994 0-2.184.182-3.862.545-5.034.377-1.145.956-2.11 1.737-2.897.58-.692 1.387-1.311 2.424-1.857 1.024-.52 2.336-.793 3.939-.82zm20.683 0c1.656.026 2.996.3 4.02.819 1.01.546 1.79 1.165 2.342 1.857.835.786 1.428 1.752 1.778 2.897.336 1.172.505 2.85.505 5.034 0 2.184-.169 3.849-.505 4.994-.35 1.146-.943 2.138-1.778 2.977-.27.306-.599.606-.99.899-.35.333-.8.62-1.353.859-1.023.572-2.363.872-4.02.899-1.602-.027-2.915-.327-3.938-.9-1.037-.519-1.845-1.105-2.424-1.757-.78-.84-1.36-1.831-1.737-2.977-.363-1.145-.545-2.81-.545-4.994 0-2.184.182-3.862.545-5.034.377-1.145.956-2.11 1.737-2.897.58-.692 1.387-1.311 2.424-1.857 1.023-.52 2.336-.793 3.939-.82zm-18.27 4.22c-.441 0-.849.084-1.223.251-.357.16-.648.38-.873.658-.225.296-.387.639-.486 1.03-.1.407-.15 1.045-.15 1.915 0 .861.05 1.492.15 1.89.1.407.261.766.486 1.078.225.239.516.45.873.634.374.175.782.263 1.223.263.474 0 .89-.088 1.247-.263.374-.184.657-.395.848-.634.258-.312.428-.67.512-1.078.083-.398.124-1.02.124-1.867 0-.885-.041-1.531-.124-1.938-.084-.391-.254-.734-.512-1.03-.191-.279-.474-.498-.848-.658-.358-.167-.773-.251-1.247-.251zm21.073 0c-.441 0-.848.084-1.223.251-.357.16-.648.38-.873.658-.224.296-.387.639-.486 1.03-.1.407-.15 1.045-.15 1.915 0 .861.05 1.492.15 1.89.1.407.262.766.486 1.078.225.239.516.45.873.634.375.175.782.263 1.223.263.474 0 .89-.088 1.247-.263.374-.184.657-.395.848-.634.258-.312.429-.67.512-1.078.083-.398.124-1.02.124-1.867 0-.885-.041-1.531-.124-1.938-.083-.391-.254-.734-.512-1.03-.191-.279-.474-.498-.848-.658-.358-.167-.773-.251-1.247-.251z"/>
        <path fill="#3A3A3A" d="M104.074 8.13c2.571.067 4.45.973 5.635 2.717.579.653.976 1.512 1.192 2.577.202 1.052.303 2.837.303 5.354 0 2.45-.101 4.209-.303 5.274-.216 1.065-.613 1.938-1.192 2.617-.58.799-1.34 1.438-2.283 1.918-.929.492-2.046.752-3.352.779-1.078 0-2.04-.233-2.889-.7-.697-.324-1.352-.742-1.964-1.252l-.302-.263-.259-.242v10.607H94.44V8.39h4.221v2.158l.214-.226c1.368-1.398 3.102-2.128 5.2-2.191zm17.742 0c1.656.027 2.996.3 4.019.82 1.01.546 1.79 1.165 2.343 1.857.835.786 1.427 1.752 1.777 2.897.337 1.172.505 2.85.505 5.034 0 2.184-.168 3.849-.505 4.994-.35 1.146-.942 2.138-1.777 2.977-.27.306-.6.606-.99.899-.35.333-.8.62-1.353.859-1.023.572-2.363.872-4.02.899-1.602-.027-2.915-.327-3.938-.9-1.037-.519-1.845-1.105-2.424-1.757-.78-.84-1.36-1.831-1.737-2.977-.363-1.145-.545-2.81-.545-4.994 0-2.184.182-3.862.545-5.034.377-1.145.956-2.11 1.737-2.897.58-.692 1.387-1.311 2.424-1.857 1.023-.52 2.336-.793 3.939-.82zm19.512 0c1.656.027 2.996.3 4.02.82 1.01.546 1.79 1.165 2.342 1.857.835.786 1.428 1.752 1.778 2.897.336 1.172.505 2.85.505 5.034 0 2.184-.169 3.849-.505 4.994-.35 1.146-.943 2.138-1.778 2.977-.27.306-.599.606-.99.899-.35.333-.8.62-1.353.859-1.023.572-2.363.872-4.02.899-1.602-.027-2.915-.327-3.938-.9-1.037-.519-1.845-1.105-2.424-1.757-.78-.84-1.36-1.831-1.737-2.977-.363-1.145-.545-2.81-.545-4.994 0-2.184.182-3.862.545-5.034.377-1.145.956-2.11 1.737-2.897.58-.692 1.387-1.311 2.424-1.857 1.023-.52 2.336-.793 3.939-.82zm-119.03 0c1.738 0 3.327.606 4.768 1.818 1.427 1.226 2.167 3.024 2.221 5.394v13.784h-4.221V16.78l-.005-.285c-.048-1.312-.43-2.322-1.146-3.03-.768-.773-1.758-1.16-2.97-1.16-1.211 0-2.208.387-2.989 1.16-.794.758-1.192 1.864-1.192 3.315v12.346h-4.22V16.78l-.006-.285c-.048-1.312-.43-2.322-1.146-3.03-.781-.773-1.778-1.16-2.99-1.16-1.211 0-2.201.387-2.969 1.16-.808.758-1.212 1.864-1.212 3.315v12.346H0V8.39h4.221v2.198h.081l.192-.219c1.362-1.492 3.123-2.238 5.282-2.238 1.454.026 2.626.273 3.514.739.778.461 1.498 1.034 2.159 1.716l.245.261.208-.225c1.62-1.686 3.751-2.517 6.397-2.491zm60.043 0c1.737 0 3.326.606 4.767 1.818 1.427 1.226 2.175 3.024 2.242 5.394v13.784h-4.222V16.78l-.005-.285c-.048-1.312-.437-2.322-1.166-3.03-.768-.773-1.757-1.16-2.97-1.16-1.211 0-2.208.387-2.989 1.16-.794.758-1.191 1.864-1.191 3.315v12.346h-4.222V8.39h4.222v2.198h.08l.192-.219c1.362-1.492 3.116-2.238 5.262-2.238zM156.417 0v23.772l.005.162c.055.785.518 1.203 1.39 1.252l.18.005h1.454v3.935h-1.878l-.325-.006c-1.39-.05-2.547-.428-3.472-1.133-.992-.73-1.516-1.928-1.571-3.596l-.005-.3V0h4.222zM102.8 12.306c-.943 0-1.69.193-2.242.579-.579.386-1.003.892-1.272 1.518-.256.626-.425 1.305-.505 2.038-.081.772-.122 1.551-.122 2.337 0 .733.04 1.465.122 2.198.08.772.249 1.471.505 2.097.269.626.693 1.132 1.272 1.518.552.4 1.3.6 2.242.6.997 0 1.784-.187 2.363-.56.58-.386.99-.879 1.232-1.478.27-.626.451-1.318.546-2.078.027-.745.04-1.511.04-2.297 0-.826-.013-1.631-.04-2.417-.095-.786-.276-1.478-.546-2.078-.242-.626-.653-1.118-1.232-1.478-.579-.333-1.366-.5-2.363-.5zm19.015 0c-.714 0-1.374.14-1.98.42-.579.266-1.05.632-1.414 1.098-.363.493-.626 1.065-.787 1.718-.162.68-.243 1.745-.243 3.196 0 1.438.08 2.49.243 3.156.161.68.424 1.279.787 1.798.364.4.835.753 1.414 1.06.606.292 1.266.439 1.98.439.767 0 1.44-.147 2.02-.44.605-.306 1.063-.66 1.373-1.059.417-.519.693-1.118.828-1.798.135-.665.202-1.704.202-3.116 0-1.478-.067-2.557-.202-3.236-.135-.653-.41-1.225-.828-1.718-.31-.466-.768-.832-1.374-1.099-.579-.28-1.252-.42-2.02-.42zm19.512 0c-.714 0-1.374.14-1.98.42-.579.266-1.05.632-1.414 1.098-.363.493-.626 1.065-.787 1.718-.162.68-.243 1.745-.243 3.196 0 1.438.081 2.49.243 3.156.161.68.424 1.279.787 1.798.364.4.835.753 1.414 1.06.606.292 1.266.439 1.98.439.767 0 1.44-.147 2.02-.44.606-.306 1.063-.66 1.373-1.059.417-.519.694-1.118.828-1.798.135-.665.202-1.704.202-3.116 0-1.478-.067-2.557-.202-3.236-.134-.653-.41-1.225-.828-1.718-.31-.466-.767-.832-1.373-1.099-.58-.28-1.253-.42-2.02-.42z"/>
    </g>
</svg>
