<svg xmlns="http://www.w3.org/2000/svg" width="26" height="26" viewBox="0 0 26 26">
    <g fill="none" fill-rule="evenodd">
        <g stroke="#3A3A3A" stroke-linecap="round" stroke-linejoin="round" stroke-width="2">
            <path d="M12 16.939c.224 0 .407.176.407.392 0 .216-.183.392-.407.392-.224 0-.407-.176-.407-.392 0-.216.183-.392.407-.392M18.5 9.83c-3.79-2.958-9.21-2.958-13 0M8.21 13.616c2.21-1.724 5.37-1.724 7.582 0" transform="translate(-3 -3) translate(4 4)"/>
            <path d="M20.485 3.515c4.687 4.686 4.687 12.284 0 16.97-4.686 4.687-12.284 4.687-16.97 0-4.686-4.686-4.686-12.284 0-16.97 4.686-4.687 12.284-4.687 16.97 0" transform="translate(-3 -3) translate(4 4)"/>
        </g>
        <path d="M0 0L32 0 32 32 0 32z" transform="translate(-3 -3)"/>
    </g>
</svg>
